<?xml version="1.0" encoding="UTF-8" standalone="no"?>
<!-- Created with Inkscape (http://www.inkscape.org/) -->
<svg
   xmlns:dc="http://purl.org/dc/elements/1.1/"
   xmlns:cc="http://web.resource.org/cc/"
   xmlns:rdf="http://www.w3.org/1999/02/22-rdf-syntax-ns#"
   xmlns:svg="http://www.w3.org/2000/svg"
   xmlns="http://www.w3.org/2000/svg"
   xmlns:sodipodi="http://sodipodi.sourceforge.net/DTD/sodipodi-0.dtd"
   xmlns:inkscape="http://www.inkscape.org/namespaces/inkscape"
   width="916.26752"
   height="480.11691"
   id="svg3900"
   sodipodi:version="0.32"
   inkscape:version="0.44"
   sodipodi:docbase="C:\Documents and Settings\Oem\Documenti\Immagini\SVG"
   sodipodi:docname="unstable3.svg"
   version="1.0">
  <defs
     id="defs3902" />
  <sodipodi:namedview
     inkscape:document-units="in"
     pagecolor="white"
     bordercolor="#666666"
     borderopacity="1.0"
     inkscape:pageopacity="0"
     inkscape:pageshadow="2"
     inkscape:zoom="0.49150327"
     inkscape:cx="495"
     inkscape:cy="382.5"
     inkscape:current-layer="layer1"
     id="namedview3904"
     inkscape:window-width="956"
     inkscape:window-height="576"
     inkscape:window-x="175"
     inkscape:window-y="175" />
  <metadata
     id="metadata3906">
    <rdf:RDF>
      <cc:Work
         rdf:about="">
        <dc:format>image/svg+xml</dc:format>
        <dc:type
           rdf:resource="http://purl.org/dc/dcmitype/StillImage" />
      </cc:Work>
    </rdf:RDF>
  </metadata>
  <g
     inkscape:label="Layer 1"
     inkscape:groupmode="layer"
     id="layer1"
     transform="translate(-35.67323,-111.2093)">
    <path
       style="fill:#44a135;fill-opacity:1;fill-rule:nonzero;stroke:black;stroke-width:1.61038864px;stroke-linecap:butt;stroke-linejoin:miter;stroke-opacity:1"
       d="M 36.478421,590.52105 C 73.255864,589.52455 112.66164,592.25906 148.47934,585.28746 C 194.93193,576.28493 232.42277,548.21736 267.60231,518.29235 C 308.362,479.23227 343.78018,424.93627 373.71476,376.88796 C 409.07617,321.64765 455.19694,278.39562 525.26085,289.22444 C 637.53002,312.55899 674.78276,414.13616 746.1295,487.73546 C 772.60134,518.23565 800.06549,547.64906 836.22285,566.65278 C 853.72267,574.81789 871.25985,587.69222 891.7498,587.13704 C 907.53546,586.70932 922.31175,588.50782 937.95193,588.08405 C 942.3465,587.96497 946.74097,587.8459 951.13554,587.72683"
       id="path1880"
       sodipodi:nodetypes="cssssssssc" />
    <path
       sodipodi:type="arc"
       style="fill:red;fill-rule:evenodd;stroke:black;stroke-width:1px;stroke-linecap:butt;stroke-linejoin:miter;stroke-opacity:1"
       id="path1882"
       sodipodi:cx="360.34192"
       sodipodi:cy="229.30849"
       sodipodi:rx="57.327122"
       sodipodi:ry="55.962193"
       d="M 417.66904 229.30849 A 57.327122 55.962193 0 1 1  303.0148,229.30849 A 57.327122 55.962193 0 1 1  417.66904 229.30849 z"
       transform="matrix(1.563332,0,0,1.563332,-55.87332,-159.0068)" />
  </g>
</svg>
